<?xml version="1.0" encoding="UTF-8" standalone="no"?>
<!-- Created with Inkscape (http://www.inkscape.org/) -->

<svg
   width="210mm"
   height="297mm"
   viewBox="0 0 210 297"
   version="1.1"
   id="svg32819"
   inkscape:version="1.1 (c68e22c387, 2021-05-23)"
   sodipodi:docname="header-logo.svg"
   xmlns:inkscape="http://www.inkscape.org/namespaces/inkscape"
   xmlns:sodipodi="http://sodipodi.sourceforge.net/DTD/sodipodi-0.dtd"
   xmlns="http://www.w3.org/2000/svg"
   xmlns:svg="http://www.w3.org/2000/svg">
  <sodipodi:namedview
     id="namedview32821"
     pagecolor="#505050"
     bordercolor="#eeeeee"
     borderopacity="1"
     inkscape:pageshadow="0"
     inkscape:pageopacity="0"
     inkscape:pagecheckerboard="0"
     inkscape:document-units="mm"
     showgrid="false"
     inkscape:zoom="0.74118967"
     inkscape:cx="396.6596"
     inkscape:cy="453.99985"
     inkscape:window-width="1920"
     inkscape:window-height="1017"
     inkscape:window-x="1912"
     inkscape:window-y="-8"
     inkscape:window-maximized="1"
     inkscape:current-layer="layer1" />
  <defs
     id="defs32816">
    <clipPath
       clipPathUnits="userSpaceOnUse"
       id="clipPath95">
      <path
         d="m 99.719,50.594 h 33.777 V 76.106 H 99.719 Z"
         transform="scale(1.3333333)"
         id="path95" />
    </clipPath>
    <clipPath
       clipPathUnits="userSpaceOnUse"
       id="clipPath93">
      <path
         d="M 0,0 H 613 V 793 H 0 Z"
         id="path93" />
    </clipPath>
    <clipPath
       clipPathUnits="userSpaceOnUse"
       id="clipPath99">
      <path
         d="m 99.207,15.246 h 34.688 v 34.98 H 99.207 Z"
         transform="scale(1.3333333)"
         id="path99" />
    </clipPath>
    <clipPath
       clipPathUnits="userSpaceOnUse"
       id="clipPath97">
      <path
         d="M 0,0 H 613 V 793 H 0 Z"
         id="path97" />
    </clipPath>
    <clipPath
       clipPathUnits="userSpaceOnUse"
       id="clipPath102">
      <path
         d="m 99.207,15.246 h 34.688 v 34.98 H 99.207 Z"
         transform="scale(1.3333333)"
         id="path102" />
    </clipPath>
    <clipPath
       clipPathUnits="userSpaceOnUse"
       id="clipPath100">
      <path
         d="M 0,0 H 613 V 793 H 0 Z"
         id="path100" />
    </clipPath>
    <clipPath
       clipPathUnits="userSpaceOnUse"
       id="clipPath105">
      <path
         d="m 99.207,15.246 h 34.688 v 34.98 H 99.207 Z"
         transform="scale(1.3333333)"
         id="path105" />
    </clipPath>
    <clipPath
       clipPathUnits="userSpaceOnUse"
       id="clipPath103">
      <path
         d="M 0,0 H 613 V 793 H 0 Z"
         id="path103" />
    </clipPath>
    <clipPath
       clipPathUnits="userSpaceOnUse"
       id="clipPath108">
      <path
         d="m 99.207,15.246 h 34.688 v 34.98 H 99.207 Z"
         transform="scale(1.3333333)"
         id="path108" />
    </clipPath>
    <clipPath
       clipPathUnits="userSpaceOnUse"
       id="clipPath106">
      <path
         d="M 0,0 H 613 V 793 H 0 Z"
         id="path106" />
    </clipPath>
  </defs>
  <g
     inkscape:label="Layer 1"
     inkscape:groupmode="layer"
     id="layer1">
    <g
       id="g32772"
       transform="matrix(0.62229118,0,0,0.62229118,-562.38289,201.31957)">
      <g
         id="g32754"
         clip-path="url(#clipPath95)"
         inkscape:export-filename="CroccoPainting-Logo-14x253.png"
         inkscape:export-xdpi="300"
         inkscape:export-ydpi="300"
         transform="translate(838.19192,-160.37962)">
        <path
           d="m 99.723,48.926 v 3.89 c 0,1.344 1.093,2.438 2.441,2.438 h 5.609 c 3.2,0 5.797,2.598 5.793,5.797 v 12.058 c 0,1.645 1.336,2.977 2.981,2.977 1.644,0 2.976,-1.332 2.976,-2.977 l 0.004,-12.054 c 0,-3.203 2.594,-5.797 5.797,-5.797 h 5.61 c 1.347,0 2.441,-1.09 2.441,-2.438 V 48.934 L 99.723,48.926"
           style="fill:#060504;fill-opacity:1;fill-rule:nonzero;stroke:none"
           transform="scale(1.3333333)"
           clip-path="url(#clipPath93)"
           id="path32752" />
      </g>
      <g
         id="g32758"
         clip-path="url(#clipPath99)"
         transform="translate(838.19192,-160.37962)">
        <path
           d="m 126.938,47.898 h 6.957 V 24.277 l -6.957,-3.82 v 27.441"
           style="fill:#e45ab4;fill-opacity:1;fill-rule:evenodd;stroke:none"
           transform="scale(1.3333333)"
           clip-path="url(#clipPath97)"
           id="path32756" />
      </g>
      <g
         id="g32762"
         clip-path="url(#clipPath102)"
         transform="translate(838.19192,-160.37962)">
        <path
           d="m 121.293,47.898 h 3.84 V 19.461 l -7.68,-4.215 v 18.527 c 2.18,0.422 3.84,2.352 3.84,4.649 v 9.476"
           style="fill:#f14658;fill-opacity:1;fill-rule:evenodd;stroke:none"
           transform="scale(1.3333333)"
           clip-path="url(#clipPath100)"
           id="path32760" />
      </g>
      <g
         id="g32766"
         clip-path="url(#clipPath105)"
         transform="translate(838.19192,-160.37962)">
        <path
           d="m 107.969,47.898 h 3.84 v -9.476 c 0,-2.297 1.66,-4.227 3.839,-4.649 V 15.246 l -7.679,4.215 v 28.437"
           style="fill:#f8df47;fill-opacity:1;fill-rule:evenodd;stroke:none"
           transform="scale(1.3333333)"
           clip-path="url(#clipPath103)"
           id="path32764" />
      </g>
      <g
         id="g32770"
         clip-path="url(#clipPath108)"
         transform="translate(838.19192,-160.37962)"
         style="fill:#75c932;fill-opacity:1"
         inkscape:export-filename="CroccoPainting-Logo-12.2x21.5.png"
         inkscape:export-xdpi="300"
         inkscape:export-ydpi="300">
        <path
           d="m 99.211,47.898 h 6.953 V 20.453 l -6.953,3.824 v 23.621"
           style="fill:#75c932;fill-opacity:1;fill-rule:evenodd;stroke:none"
           transform="scale(1.3333333)"
           clip-path="url(#clipPath106)"
           id="path32768" />
      </g>
    </g>
    <path
       id="path32774"
       d="m 77.640904,135.36062 c -0.527788,0 -1.017002,-0.0964 -1.467757,-0.2762 -0.45606,-0.19185 -0.848919,-0.45498 -1.18402,-0.79008 -0.333966,-0.34258 -0.59845,-0.74406 -0.778371,-1.19581 -0.183005,-0.45177 -0.275029,-0.94103 -0.275029,-1.46776 0,-0.53527 0.09207,-1.03308 0.275029,-1.48487 0.17983,-0.45609 0.444405,-0.85752 0.778371,-1.19155 0.335101,-0.34361 0.72796,-0.607 1.18402,-0.79114 0.450755,-0.19185 0.939969,-0.28798 1.467757,-0.28798 0.577044,0 1.10803,0.1211 1.597289,0.36401 0.480643,0.23446 0.890692,0.56845 1.217265,1.00311 0.333967,0.42714 0.555636,0.92817 0.669068,1.49773 h -1.572707 c -0.146495,-0.43145 -0.385376,-0.76975 -0.727892,-1.02027 -0.338389,-0.25158 -0.732314,-0.37682 -1.183023,-0.37682 -0.40998,0 -0.774017,0.10908 -1.091973,0.31367 -0.322265,0.20024 -0.577021,0.47638 -0.769663,0.81574 -0.184139,0.33832 -0.27521,0.72265 -0.27521,1.15837 0,0.42611 0.09116,0.81148 0.27521,1.15409 0.192529,0.33399 0.447398,0.60165 0.769663,0.80291 0.317956,0.20024 0.681993,0.30083 1.091973,0.30083 0.467808,0 0.87357,-0.12971 1.22044,-0.40145 0.343627,-0.26337 0.577043,-0.63163 0.702335,-1.09091 h 1.572616 c -0.112252,0.59736 -0.329726,1.1166 -0.656255,1.55552 -0.317979,0.44751 -0.723651,0.79436 -1.217287,1.04487 -0.489169,0.24301 -1.02875,0.36399 -1.621849,0.36399 z m 22.929456,-0.1508 -1.397145,-2.45054 h -0.991378 v 2.45054 h -1.572706 v -7.18349 h 2.915217 c 0.476332,0 0.907832,0.10409 1.283622,0.31369 0.37682,0.20024 0.66909,0.48067 0.89071,0.84037 0.21725,0.35116 0.32648,0.76547 0.32648,1.22901 0,0.46461 -0.11656,0.87786 -0.35113,1.24611 -0.2345,0.36833 -0.55242,0.64451 -0.95391,0.82863 l 1.59302,2.72568 z m -2.388523,-5.75429 v 1.86171 h 1.230101 c 0.325372,0 0.581284,-0.0834 0.764352,-0.25158 0.18414,-0.17575 0.28048,-0.39717 0.28048,-0.66911 0,-0.27512 -0.0964,-0.50103 -0.28048,-0.67658 -0.183,-0.17574 -0.43898,-0.26444 -0.764352,-0.26444 z m 21.444503,5.90525 c -0.55559,0 -1.06626,-0.0964 -1.53415,-0.27621 -0.4603,-0.19184 -0.86604,-0.45501 -1.20863,-0.79009 -0.34261,-0.34261 -0.6102,-0.74404 -0.80293,-1.19579 -0.19253,-0.45182 -0.28909,-0.94537 -0.28909,-1.48064 0,-0.53527 0.0964,-1.03306 0.28909,-1.48483 0.19276,-0.4518 0.46032,-0.8447 0.80293,-1.17871 0.34259,-0.34365 0.74833,-0.60703 1.20863,-0.79117 0.46789,-0.19184 0.97856,-0.28797 1.53415,-0.28797 0.5438,0 1.04596,0.0966 1.50629,0.28797 0.46785,0.18414 0.87359,0.44752 1.22046,0.79117 0.33939,0.33401 0.60698,0.72691 0.80293,1.17871 0.19253,0.45177 0.28904,0.94956 0.28904,1.48483 0,0.53527 -0.0964,1.02882 -0.28904,1.48064 -0.19593,0.45175 -0.46354,0.85318 -0.80293,1.19579 -0.34687,0.33508 -0.75261,0.59845 -1.22046,0.79009 -0.46033,0.17983 -0.96249,0.27621 -1.50629,0.27621 z m 0,-1.47204 c 0.42719,0 0.80717,-0.0923 1.14232,-0.288 0.34252,-0.20137 0.61022,-0.4689 0.80293,-0.81574 0.20024,-0.34259 0.30077,-0.73229 0.30077,-1.16695 0,-0.42608 -0.10069,-0.81145 -0.30077,-1.15832 -0.19276,-0.35116 -0.46041,-0.61882 -0.80293,-0.81579 -0.33515,-0.20024 -0.71513,-0.30079 -1.14232,-0.30079 -0.43039,0 -0.81474,0.10068 -1.15835,0.30079 -0.34687,0.19683 -0.61453,0.46463 -0.81465,0.81579 -0.19707,0.34687 -0.28905,0.73224 -0.28905,1.15832 0,0.43466 0.0921,0.82436 0.28905,1.16695 0.20024,0.34684 0.46778,0.6145 0.81465,0.81574 0.34361,0.19593 0.72796,0.288 1.15835,0.288 z m 23.42715,1.47204 c -0.5267,0 -1.01592,-0.0964 -1.46776,-0.27621 -0.45599,-0.19184 -0.84892,-0.45501 -1.18291,-0.79009 -0.3351,-0.34261 -0.59845,-0.74404 -0.7783,-1.19579 -0.18414,-0.45182 -0.27619,-0.94106 -0.27619,-1.46776 0,-0.53527 0.0921,-1.0331 0.27619,-1.4849 0.17983,-0.45606 0.4432,-0.85751 0.7783,-1.19152 0.33399,-0.34365 0.72692,-0.60703 1.18291,-0.79117 0.45184,-0.19184 0.94106,-0.28797 1.46776,-0.28797 0.57709,0 1.10805,0.12109 1.59727,0.36399 0.48497,0.2345 0.89075,0.56849 1.21721,1.00312 0.33515,0.42717 0.55675,0.92818 0.66914,1.49774 h -1.57266 c -0.14559,-0.43146 -0.3844,-0.76975 -0.72694,-1.02025 -0.33936,-0.2516 -0.73218,-0.37682 -1.18402,-0.37682 -0.40998,0 -0.77291,0.10907 -1.09084,0.31362 -0.32229,0.20024 -0.57707,0.47645 -0.76978,0.81579 -0.18414,0.33832 -0.27623,0.72263 -0.27623,1.15837 0,0.42608 0.0923,0.81148 0.27623,1.15407 0.19276,0.33399 0.44749,0.60164 0.76978,0.8029 0.31793,0.20024 0.68086,0.30084 1.09084,0.30084 0.46892,0 0.87461,-0.12971 1.22146,-0.40145 0.34265,-0.26338 0.57707,-0.63165 0.70233,-1.09091 h 1.57271 c -0.11339,0.59738 -0.33081,1.1166 -0.65632,1.55549 -0.31791,0.44754 -0.72368,0.79438 -1.2172,1.0449 -0.48926,0.24303 -1.02886,0.36401 -1.62298,0.36401 z m 22.27308,0 c -0.5267,0 -1.01589,-0.0964 -1.46771,-0.27621 -0.4518,-0.19184 -0.84894,-0.45501 -1.18407,-0.79009 -0.33405,-0.34261 -0.59305,-0.74404 -0.77721,-1.19579 -0.18414,-0.45182 -0.27625,-0.94106 -0.27625,-1.46776 0,-0.53527 0.0923,-1.0331 0.27625,-1.4849 0.18414,-0.45606 0.44316,-0.85751 0.77721,-1.19152 0.33513,-0.34365 0.73227,-0.60703 1.18407,-0.79117 0.45182,-0.19184 0.94101,-0.28797 1.46771,-0.28797 0.58135,0 1.11234,0.12109 1.59729,0.36399 0.48495,0.2345 0.89078,0.56849 1.21722,1.00312 0.33406,0.42717 0.55564,0.92818 0.66916,1.49774 h -1.57266 c -0.14242,-0.43146 -0.38438,-0.76975 -0.72803,-1.02025 -0.33825,-0.2516 -0.72692,-0.37682 -1.18298,-0.37682 -0.41002,0 -0.77402,0.10907 -1.09193,0.31362 -0.32115,0.20024 -0.57706,0.47645 -0.76542,0.81579 -0.18731,0.33832 -0.27519,0.72263 -0.27519,1.15837 0,0.42608 0.0878,0.81148 0.27519,1.15407 0.18822,0.33399 0.44427,0.60164 0.76542,0.8029 0.31791,0.20024 0.68191,0.30084 1.09193,0.30084 0.4679,0 0.87364,-0.12971 1.22051,-0.40145 0.34363,-0.26338 0.57811,-0.63165 0.70331,-1.09091 h 1.57162 c -0.11225,0.59738 -0.32549,1.1166 -0.65628,1.55549 -0.31793,0.44754 -0.72367,0.79438 -1.21722,1.0449 -0.48495,0.24303 -1.02777,0.36401 -1.62194,0.36401 z m 22.38976,0 c -0.55661,0 -1.06628,-0.0964 -1.53515,-0.27621 -0.45929,-0.19184 -0.86498,-0.45501 -1.20439,-0.79009 -0.34687,-0.34261 -0.61446,-0.74404 -0.80717,-1.19579 -0.19185,-0.45182 -0.288,-0.94537 -0.288,-1.48064 0,-0.53527 0.0966,-1.03306 0.288,-1.48483 0.19253,-0.4518 0.4603,-0.8447 0.80717,-1.17871 0.33941,-0.34365 0.7451,-0.60703 1.20439,-0.79117 0.46887,-0.19184 0.97854,-0.28797 1.53515,-0.28797 0.54387,0 1.04492,0.0966 1.50529,0.28797 0.46889,0.18414 0.87466,0.44752 1.22153,0.79117 0.34253,0.33401 0.60595,0.72691 0.80293,1.17871 0.19162,0.45177 0.28797,0.94956 0.28797,1.48483 0,0.53527 -0.0964,1.02882 -0.28797,1.48064 -0.19684,0.45175 -0.4604,0.85318 -0.80293,1.19579 -0.34687,0.33508 -0.75264,0.59845 -1.22153,0.79009 -0.46037,0.17983 -0.96142,0.27621 -1.50529,0.27621 z m 0,-1.47204 c 0.42619,0 0.80719,-0.0923 1.14125,-0.288 0.34365,-0.20137 0.61133,-0.4689 0.80293,-0.81574 0.20137,-0.34259 0.30188,-0.73229 0.30188,-1.16695 0,-0.42608 -0.10069,-0.81145 -0.30188,-1.15832 -0.19185,-0.35116 -0.45928,-0.61882 -0.80293,-0.81579 -0.33406,-0.20024 -0.71506,-0.30079 -1.14125,-0.30079 -0.43032,0 -0.81574,0.10068 -1.15831,0.30079 -0.34256,0.19683 -0.6145,0.46463 -0.81581,0.81579 -0.19593,0.34687 -0.28793,0.73224 -0.28793,1.15832 0,0.43466 0.0921,0.82436 0.28793,1.16695 0.20138,0.34684 0.47325,0.6145 0.81581,0.81574 0.34257,0.19593 0.72799,0.288 1.15831,0.288 z m -67.65422,9.20042 c 0.55128,0 1.04482,0.12541 1.48381,0.37578 0.4388,0.25159 0.79109,0.60274 1.04158,1.04168 0.25054,0.43892 0.37685,0.93673 0.37685,1.49769 0,0.5599 -0.12631,1.06202 -0.37685,1.50527 -0.25049,0.44746 -0.60278,0.79862 -1.04158,1.05766 -0.43899,0.25051 -0.93253,0.37685 -1.48381,0.37685 -0.28485,0 -0.56106,-0.046 -0.81584,-0.12631 -0.26335,-0.0835 -0.50211,-0.19593 -0.71934,-0.3383 v 2.29636 h -1.49345 v -7.53678 h 0.99124 l 0.26337,0.50209 c 0.23446,-0.20432 0.50217,-0.36827 0.80729,-0.4764 0.30188,-0.11656 0.61875,-0.17552 0.96673,-0.17552 z m -0.12632,4.43214 c 0.29336,0 0.5524,-0.0621 0.77835,-0.20024 0.22564,-0.12949 0.4057,-0.31367 0.53954,-0.53958 0.13379,-0.22586 0.20432,-0.48493 0.20432,-0.77721 0,-0.28476 -0.0705,-0.53958 -0.20432,-0.76547 -0.1338,-0.23448 -0.31372,-0.41858 -0.53954,-0.5567 -0.22586,-0.12972 -0.48499,-0.20024 -0.77835,-0.20024 -0.29652,0 -0.5513,0.0705 -0.77723,0.20024 -0.22564,0.1381 -0.40998,0.32226 -0.54382,0.5567 -0.12541,0.22564 -0.18822,0.48071 -0.18822,0.76547 0,0.29228 0.0635,0.55132 0.18822,0.77721 0.13379,0.22564 0.31791,0.41003 0.54382,0.53958 0.22586,0.1381 0.48071,0.20024 0.77723,0.20024 z m 8.6191,-4.29401 h 1.13376 v 5.54125 h -1.18411 l -0.12517,-0.48926 c -0.24195,0.20024 -0.51818,0.3586 -0.82754,0.47638 -0.30188,0.11226 -0.62736,0.17553 -0.96673,0.17553 -0.55556,0 -1.0534,-0.12518 -1.4966,-0.37683 -0.43474,-0.25909 -0.77837,-0.60594 -1.02888,-1.04487 -0.25478,-0.44325 -0.38005,-0.94532 -0.38005,-1.50522 0,-0.56097 0.1254,-1.0588 0.38005,-1.49774 0.25051,-0.43892 0.59414,-0.79007 1.02888,-1.04165 0.4432,-0.2505 0.94104,-0.37576 1.4966,-0.37576 0.35118,0 0.68191,0.0587 0.99131,0.17552 0.30948,0.12087 0.58129,0.28478 0.81579,0.48926 z m -1.84345,4.29401 c 0.2794,0 0.53851,-0.0621 0.76435,-0.20024 0.23025,-0.12949 0.41432,-0.31367 0.53958,-0.53958 0.1338,-0.22586 0.20138,-0.48493 0.20138,-0.77721 0,-0.29336 -0.0676,-0.55244 -0.20138,-0.77831 -0.1254,-0.22564 -0.3094,-0.40574 -0.53958,-0.54386 -0.22563,-0.12972 -0.48495,-0.20024 -0.76435,-0.20024 -0.30617,0 -0.56954,0.0705 -0.79549,0.20024 -0.21725,0.1381 -0.39284,0.31798 -0.52673,0.54386 -0.1254,0.22587 -0.18822,0.48495 -0.18822,0.77831 0,0.29228 0.0635,0.55132 0.18822,0.77721 0.1338,0.22564 0.30948,0.41003 0.52673,0.53958 0.22586,0.1381 0.48932,0.20024 0.79549,0.20024 z m 4.40318,-5.02199 v -1.3971 h 1.49243 v 1.3971 z m 0,6.28096 v -5.54121 h 1.49243 v 5.54121 z m 6.10118,-5.67825 c 0.62736,0 1.12088,0.21316 1.48063,0.63913 0.36824,0.42284 0.55131,0.9785 0.55131,1.68507 v 3.35405 h -1.49234 v -3.11532 c 0,-0.82754 -0.32655,-1.24614 -0.96993,-1.24614 -0.37689,0 -0.67768,0.1338 -0.90364,0.39291 -0.22563,0.25909 -0.33823,0.61128 -0.33823,1.05451 v 2.91404 h -1.49773 v -5.54121 h 1.03308 l 0.30079,0.69049 c 0.20137,-0.25477 0.46039,-0.45606 0.7783,-0.60164 0.32553,-0.15081 0.68084,-0.22564 1.05776,-0.22564 z m 6.1268,4.34435 h 0.67766 v 1.3339 h -1.0587 c -0.61022,0 -1.09093,-0.17552 -1.44205,-0.52668 -0.35226,-0.35544 -0.52785,-0.83613 -0.52785,-1.45918 v -2.36274 h -1.00732 v -0.31369 l 2.19998,-2.32099 h 0.27505 v 1.44207 h 1.52236 v 1.19261 h -1.49664 v 2.17429 c 0,0.27194 0.0707,0.47642 0.21316,0.62736 0.1508,0.14672 0.36392,0.21317 0.6444,0.21317 z m 1.69786,-4.94706 v -1.3971 h 1.49672 v 1.3971 z m 0,6.28096 v -5.54121 h 1.49672 v 5.54121 z m 6.10118,-5.67825 c 0.62739,0 1.12087,0.21316 1.48062,0.63913 0.3673,0.42284 0.55565,0.9785 0.55565,1.68507 v 3.35405 h -1.49667 v -3.11532 c 0,-0.82754 -0.32222,-1.24614 -0.96672,-1.24614 -0.37576,0 -0.68086,0.1338 -0.90677,0.39291 -0.22564,0.25909 -0.33939,0.61128 -0.33939,1.05451 v 2.91404 h -1.49232 v -5.54121 h 1.02878 l 0.30088,0.69049 c 0.20114,-0.25477 0.4603,-0.45606 0.7783,-0.60164 0.32973,-0.15081 0.68084,-0.22564 1.05764,-0.22564 z m 7.88263,0.1372 h 0.98281 v 4.90212 c 0,0.57702 -0.12087,1.07054 -0.35118,1.49234 -0.22587,0.4186 -0.5567,0.74086 -0.98276,0.96564 -0.41865,0.22586 -0.91537,0.33938 -1.49348,0.33938 -0.7568,0 -1.38317,-0.18413 -1.88529,-0.55241 -0.50205,-0.35971 -0.81574,-0.85323 -0.94101,-1.48057 h 1.4806 c 0.0834,0.24298 0.25049,0.42712 0.50102,0.55239 0.26009,0.12541 0.53212,0.18822 0.80722,0.18822 0.38111,0 0.70662,-0.11316 0.9785,-0.33934 0.26763,-0.22496 0.40145,-0.54278 0.40145,-0.95283 v -0.21293 c -0.21725,0.15874 -0.45926,0.28366 -0.72689,0.37576 -0.27195,0.0834 -0.55244,0.1254 -0.84042,0.1254 -0.52352,0 -0.99131,-0.12087 -1.40993,-0.36295 -0.40996,-0.25586 -0.73549,-0.58557 -0.9785,-1.00847 -0.2462,-0.41858 -0.36403,-0.88643 -0.36403,-1.40456 0,-0.51922 0.11792,-0.98707 0.36403,-1.40995 0.24301,-0.42611 0.56854,-0.7569 0.9785,-1.00313 0.41862,-0.243 0.88641,-0.36399 1.40993,-0.36399 0.35547,0 0.69374,0.0621 1.00315,0.18822 0.31798,0.1211 0.59843,0.288 0.84032,0.51391 z m -1.9067,4.05744 c 0.40574,0 0.74409,-0.13062 1.01596,-0.4015 0.26771,-0.26759 0.40143,-0.61126 0.40143,-1.02877 0,-0.41005 -0.13379,-0.74941 -0.40143,-1.01705 -0.25899,-0.27941 -0.5974,-0.41751 -1.01596,-0.41751 -0.40145,0 -0.74084,0.1381 -1.0085,0.41751 -0.25904,0.26764 -0.38855,0.607 -0.38855,1.01705 0,0.41751 0.12949,0.76118 0.38855,1.02877 0.26022,0.2709 0.59419,0.4015 1.0085,0.4015 z"
       style="fill:#13100e;fill-opacity:1;fill-rule:nonzero;stroke:none;stroke-width:1.07057" />
  </g>
</svg>
